<?xml version="1.0" standalone="no"?>
<!DOCTYPE svg PUBLIC "-//W3C//DTD SVG 20010904//EN"
 "http://www.w3.org/TR/2001/REC-SVG-20010904/DTD/svg10.dtd">
<svg version="1.0" xmlns="http://www.w3.org/2000/svg"
 width="70.000000pt" height="70.000000pt" viewBox="0 0 70.000000 70.000000"
 preserveAspectRatio="xMidYMid meet">
<metadata>
Created by potrace 1.11, written by Peter Selinger 2001-2013
</metadata>
<g transform="translate(0.000000,70.000000) scale(0.100000,-0.100000)"
fill="#000000" stroke="none">
<path d="M245 689 c-162 -56 -224 -156 -220 -354 1 -84 6 -109 27 -155 24 -53
66 -110 80 -110 4 0 26 17 49 38 l41 39 -29 34 c-60 71 -76 113 -75 197 2 96
85 201 180 228 131 38 260 -21 314 -145 56 -125 -10 -283 -140 -338 -39 -16
-122 -21 -164 -9 -22 6 -29 4 -39 -16 -17 -31 -20 -70 -7 -85 7 -8 35 -13 77
-13 72 0 151 24 206 62 37 25 92 103 99 139 2 13 7 36 11 51 15 58 12 154 -7
223 -26 95 -67 147 -148 188 -55 27 -77 32 -145 34 -44 1 -93 -2 -110 -8z"/>
<path d="M480 517 c0 -3 7 -20 15 -40 20 -49 27 -139 14 -199 -6 -27 -9 -52
-6 -55 3 -2 18 13 32 36 38 57 41 125 8 191 -14 28 -34 55 -44 61 -10 5 -19 8
-19 6z"/>
</g>
</svg>
