<svg id="svg" version="1.1" xmlns="http://www.w3.org/2000/svg" xmlns:xlink="http://www.w3.org/1999/xlink" width="400" height="173.24025596276903" viewBox="0, 0, 400,173.24025596276903"><g id="svgg"><path id="path0" d="M60.500 147.773 C 60.500 147.831,61.103 150.400,61.840 153.481 C 62.577 156.562,63.409 160.058,63.689 161.250 C 63.968 162.442,64.252 163.604,64.320 163.833 C 64.441 164.241,64.483 164.251,66.279 164.297 L 68.113 164.344 68.493 162.880 C 68.702 162.075,69.345 159.654,69.921 157.500 C 70.498 155.346,71.056 153.257,71.162 152.858 C 71.417 151.900,71.323 151.658,72.656 156.672 C 73.301 159.098,74.026 161.815,74.268 162.708 L 74.707 164.333 76.502 164.333 L 78.297 164.333 78.749 162.458 C 78.998 161.427,79.759 158.296,80.439 155.500 C 81.120 152.704,81.793 149.929,81.935 149.333 C 82.077 148.737,82.230 148.119,82.275 147.958 C 82.348 147.694,82.192 147.667,80.595 147.667 C 78.949 147.667,78.833 147.688,78.833 147.998 C 78.833 148.180,78.752 148.648,78.651 149.039 C 78.551 149.430,77.998 151.887,77.422 154.500 C 76.584 158.299,76.349 159.150,76.247 158.750 C 75.497 155.812,73.500 147.810,73.500 147.743 C 73.500 147.695,72.589 147.677,71.475 147.703 L 69.450 147.750 68.560 151.083 C 68.070 152.917,67.439 155.279,67.158 156.333 C 66.498 158.806,66.479 158.868,66.417 158.804 C 66.367 158.753,64.849 151.965,64.233 149.042 L 63.943 147.667 62.222 147.667 C 61.275 147.667,60.500 147.714,60.500 147.773 M127.111 147.778 C 127.050 147.839,127.000 151.589,127.000 156.111 L 127.000 164.333 132.917 164.333 L 138.833 164.333 138.833 162.917 L 138.833 161.500 134.667 161.500 L 130.500 161.500 130.500 154.583 L 130.500 147.667 128.861 147.667 C 127.960 147.667,127.172 147.717,127.111 147.778 M177.667 156.000 L 177.667 164.333 179.167 164.333 L 180.667 164.333 180.667 163.494 L 180.667 162.656 181.270 163.259 C 185.489 167.478,191.272 161.452,188.982 155.224 C 187.840 152.116,183.456 150.911,181.433 153.149 C 180.879 153.761,180.833 153.564,180.833 150.583 L 180.833 147.667 179.250 147.667 L 177.667 147.667 177.667 156.000 M207.333 155.994 L 207.333 164.333 209.000 164.333 L 210.667 164.333 210.671 162.375 L 210.676 160.417 211.344 159.667 C 211.891 159.052,212.040 158.962,212.171 159.167 C 212.259 159.304,212.950 160.523,213.707 161.875 L 215.083 164.333 216.797 164.333 L 218.512 164.333 218.313 163.958 C 218.204 163.752,217.219 162.024,216.125 160.118 L 214.134 156.653 216.150 154.511 C 217.259 153.332,218.167 152.322,218.167 152.267 C 218.167 152.212,217.309 152.167,216.261 152.167 L 214.355 152.167 212.553 154.228 L 210.750 156.290 210.667 152.020 L 210.583 147.750 208.958 147.702 L 207.333 147.655 207.333 155.994 M235.000 156.000 L 235.000 164.333 236.667 164.333 L 238.333 164.333 238.333 156.000 L 238.333 147.667 236.667 147.667 L 235.000 147.667 235.000 156.000 M264.833 150.699 L 264.833 153.732 264.292 153.218 C 261.349 150.425,256.968 152.449,256.312 156.903 C 255.444 162.797,260.459 166.786,264.392 163.332 L 265.000 162.799 265.000 163.566 L 265.000 164.333 266.500 164.333 L 268.000 164.333 268.000 156.000 L 268.000 147.667 266.417 147.667 L 264.833 147.667 264.833 150.699 M328.333 149.077 L 328.333 150.500 330.007 150.500 L 331.680 150.500 331.632 149.125 L 331.583 147.750 329.958 147.702 L 328.333 147.655 328.333 149.077 M113.375 148.971 L 111.833 149.867 111.833 151.017 L 111.833 152.167 111.083 152.167 L 110.333 152.167 110.333 153.417 L 110.333 154.667 111.073 154.667 L 111.812 154.667 111.864 158.792 C 111.932 164.103,112.155 164.500,115.079 164.500 C 116.917 164.500,117.333 164.301,117.333 163.421 C 117.333 161.838,117.232 161.675,116.317 161.783 C 114.990 161.940,115.000 161.969,115.000 158.063 L 115.000 154.667 116.083 154.667 L 117.167 154.667 117.167 153.417 L 117.167 152.167 116.088 152.167 L 115.010 152.167 114.963 150.121 L 114.917 148.075 113.375 148.971 M87.750 152.144 C 82.763 153.457,81.979 161.761,86.628 164.024 C 87.799 164.594,90.379 164.670,91.696 164.175 C 93.067 163.659,95.058 161.450,94.555 161.004 C 94.178 160.670,91.587 160.485,91.417 160.781 C 90.180 162.928,87.372 162.312,86.911 159.792 L 86.796 159.167 90.815 159.167 L 94.833 159.167 94.831 158.292 C 94.819 154.039,91.500 151.158,87.750 152.144 M100.490 152.217 C 98.216 152.861,97.079 154.565,97.587 156.565 C 97.980 158.114,99.102 158.834,102.403 159.656 C 104.743 160.239,105.000 160.372,105.000 160.999 C 105.000 162.762,101.249 162.814,100.418 161.063 C 100.181 160.563,100.077 160.492,99.696 160.566 C 99.451 160.614,98.830 160.701,98.317 160.759 C 96.913 160.919,96.867 160.986,97.447 162.025 C 99.541 165.775,107.285 165.256,108.168 161.308 C 108.707 158.901,107.511 157.708,103.520 156.676 C 100.319 155.848,99.914 155.571,100.723 154.762 C 101.625 153.860,103.924 154.070,104.539 155.111 C 104.906 155.734,105.004 155.751,106.664 155.466 C 107.963 155.243,107.964 155.242,107.512 154.357 C 106.536 152.443,103.240 151.438,100.490 152.217 M145.339 152.256 C 142.243 153.125,140.482 156.257,141.159 159.694 C 142.413 166.068,151.585 166.236,153.273 159.917 C 154.563 155.090,150.212 150.889,145.339 152.256 M161.495 152.246 C 161.080 152.379,160.428 152.756,160.046 153.082 L 159.353 153.676 159.301 152.963 L 159.250 152.250 157.792 152.202 L 156.333 152.154 156.333 158.244 L 156.333 164.333 157.904 164.333 L 159.474 164.333 159.529 160.292 C 159.596 155.312,159.922 154.503,161.861 154.501 C 163.443 154.499,163.500 154.688,163.500 159.992 L 163.500 164.333 165.167 164.333 L 166.833 164.333 166.834 160.625 C 166.836 155.670,167.254 154.500,169.023 154.500 C 170.704 154.500,170.833 154.903,170.833 160.161 L 170.833 164.333 172.417 164.333 L 174.000 164.333 173.999 159.708 C 173.999 156.962,173.926 154.825,173.821 154.447 C 173.087 151.802,169.175 151.182,166.907 153.349 L 166.398 153.836 166.028 153.336 C 165.217 152.239,163.100 151.730,161.495 152.246 M196.167 152.255 C 190.881 153.722,190.262 161.620,195.250 163.950 C 197.534 165.016,200.797 164.504,202.479 162.815 C 207.124 158.152,202.542 150.486,196.167 152.255 M247.480 152.219 C 246.691 152.515,245.808 153.067,245.406 153.514 L 245.083 153.872 245.000 153.061 L 244.917 152.250 243.458 152.202 L 242.000 152.154 242.000 158.244 L 242.000 164.333 243.561 164.333 L 245.122 164.333 245.199 160.448 C 245.299 155.419,245.706 154.500,247.834 154.500 C 249.577 154.500,249.831 155.259,249.832 160.458 L 249.833 164.333 251.417 164.333 L 253.000 164.333 252.999 159.792 C 252.998 154.152,252.817 153.421,251.201 152.529 C 250.320 152.042,248.381 151.881,247.480 152.219 M275.667 152.145 C 269.808 153.433,269.276 162.226,274.939 164.174 C 279.296 165.673,283.386 162.805,283.386 158.250 C 283.386 154.053,279.820 151.233,275.667 152.145 M291.818 152.249 C 291.397 152.384,290.708 152.798,290.286 153.170 L 289.519 153.845 289.468 153.048 L 289.417 152.250 287.958 152.202 L 286.500 152.154 286.500 158.244 L 286.500 164.333 288.070 164.333 L 289.640 164.333 289.695 160.375 C 289.757 155.880,289.846 155.502,290.987 154.861 C 291.986 154.299,292.905 154.371,293.600 155.067 L 294.167 155.633 294.167 159.983 L 294.167 164.333 295.833 164.333 L 297.500 164.333 297.500 160.106 C 297.500 155.523,297.376 154.416,296.758 153.482 C 295.957 152.272,293.588 151.680,291.818 152.249 M304.055 152.298 C 299.217 154.031,299.002 162.400,303.750 164.160 C 305.821 164.928,308.672 164.491,310.057 163.193 C 310.672 162.616,311.391 161.391,311.282 161.105 C 311.211 160.922,308.310 160.383,308.262 160.544 C 307.550 162.940,304.058 162.415,303.716 159.861 L 303.623 159.167 307.662 159.167 L 311.700 159.167 311.582 157.989 C 311.118 153.371,307.885 150.925,304.055 152.298 M317.333 152.149 C 315.129 152.643,313.807 154.366,314.158 156.286 C 314.452 157.893,315.456 158.676,318.167 159.413 C 321.445 160.305,321.491 160.323,321.597 160.746 C 322.077 162.657,318.042 162.977,317.107 161.103 C 316.841 160.570,316.734 160.494,316.357 160.567 C 316.115 160.615,315.497 160.701,314.984 160.759 C 313.613 160.915,313.551 160.988,313.998 161.912 C 315.669 165.365,322.800 165.492,324.535 162.099 C 325.908 159.417,324.382 157.698,319.583 156.522 C 317.269 155.954,316.801 155.652,317.128 154.935 C 317.636 153.819,320.759 154.057,321.304 155.252 C 321.523 155.732,321.510 155.731,323.210 155.472 C 324.641 155.254,324.670 155.203,323.993 154.083 C 322.989 152.425,319.988 151.554,317.333 152.149 M337.992 152.216 C 336.535 152.630,335.682 153.402,335.030 154.897 C 334.770 155.493,334.751 155.477,335.936 155.669 C 336.475 155.756,337.123 155.872,337.375 155.927 C 337.716 156.001,337.833 155.962,337.833 155.776 C 337.833 154.474,340.895 153.991,341.786 155.152 C 342.554 156.152,342.090 156.530,339.417 157.082 C 336.321 157.720,335.090 158.464,334.679 159.947 C 333.660 163.616,337.977 165.958,341.478 163.634 C 341.879 163.369,342.225 163.173,342.247 163.201 C 342.269 163.228,342.360 163.475,342.449 163.750 L 342.610 164.250 344.217 164.298 L 345.823 164.345 345.548 163.631 C 345.330 163.065,345.253 162.036,345.174 158.667 C 345.055 153.549,344.943 153.223,343.000 152.385 C 342.201 152.040,338.992 151.932,337.992 152.216 M328.450 152.272 C 328.386 152.336,328.333 155.076,328.333 158.361 L 328.333 164.333 330.002 164.333 L 331.671 164.333 331.627 158.292 L 331.583 152.250 330.075 152.203 C 329.246 152.176,328.515 152.208,328.450 152.272 M90.740 155.014 C 91.256 155.467,91.663 156.321,91.666 156.958 C 91.666 157.115,91.077 157.167,89.272 157.167 L 86.878 157.167 86.993 156.542 C 87.346 154.625,89.361 153.803,90.740 155.014 M148.028 154.695 C 149.444 155.119,150.268 156.679,150.127 158.667 C 149.802 163.243,144.617 163.121,144.363 158.531 C 144.212 155.804,145.885 154.053,148.028 154.695 M184.850 154.877 C 186.778 156.161,186.574 160.870,184.547 161.851 C 182.546 162.820,180.927 161.134,180.927 158.083 C 180.928 155.130,182.860 153.551,184.850 154.877 M198.862 154.695 C 201.261 155.414,201.810 159.857,199.698 161.468 C 198.390 162.465,196.319 161.921,195.572 160.384 C 194.145 157.447,196.198 153.897,198.862 154.695 M263.452 154.827 C 264.781 155.638,265.282 158.961,264.332 160.667 C 263.119 162.845,260.439 162.479,259.730 160.038 C 258.697 156.485,260.964 153.311,263.452 154.827 M278.124 154.756 C 281.300 156.083,280.538 162.000,277.192 162.000 C 275.424 162.000,274.282 160.511,274.291 158.217 C 274.300 155.569,276.126 153.921,278.124 154.756 M307.263 154.814 C 307.772 155.125,308.192 155.825,308.399 156.708 L 308.506 157.167 306.087 157.167 C 303.447 157.167,303.541 157.210,303.838 156.139 C 304.232 154.720,305.992 154.039,307.263 154.814 M341.760 160.980 C 340.800 162.837,337.767 162.675,337.767 160.767 C 337.767 159.845,338.222 159.513,340.198 158.999 L 341.917 158.552 341.966 159.519 C 341.998 160.149,341.926 160.659,341.760 160.980 M220.950 161.105 C 220.886 161.170,220.833 161.922,220.833 162.778 L 220.833 164.333 221.670 164.333 C 222.498 164.333,222.505 164.338,222.395 164.792 C 222.139 165.852,221.669 166.411,220.784 166.710 C 220.676 166.747,221.067 167.939,221.251 168.137 C 221.383 168.278,222.673 167.453,223.123 166.941 C 223.871 166.089,224.057 165.331,224.071 163.083 L 224.083 161.083 222.575 161.036 C 221.746 161.010,221.015 161.041,220.950 161.105 " stroke="none" fill="#fbfaf9" fill-rule="evenodd"></path><path id="path1" d="M207.083 4.588 C 203.484 5.003,201.588 5.564,198.283 7.194 C 196.142 8.248,196.167 8.235,196.167 8.373 C 196.167 8.443,196.082 8.500,195.979 8.500 C 195.819 8.500,193.737 9.891,193.500 10.157 C 193.454 10.208,193.079 10.521,192.667 10.852 C 191.524 11.769,190.833 12.447,190.833 12.650 C 190.833 12.783,201.356 12.833,228.917 12.833 L 267.000 12.833 267.000 8.583 L 267.000 4.333 237.958 4.355 C 215.682 4.371,208.490 4.426,207.083 4.588 M183.685 22.708 C 183.228 23.648,182.694 24.867,182.498 25.417 C 181.891 27.119,181.537 28.227,181.420 28.792 L 181.307 29.333 224.153 29.333 L 267.000 29.333 267.000 25.167 L 267.000 21.000 225.758 21.000 L 184.516 21.000 183.685 22.708 M179.886 37.770 C 179.754 38.113,179.941 45.485,180.091 45.876 C 180.196 46.150,181.294 46.167,199.601 46.167 L 219.000 46.167 219.000 41.833 L 219.000 37.500 199.495 37.500 C 181.659 37.500,179.981 37.523,179.886 37.770 M239.667 41.833 L 239.667 46.167 253.333 46.167 L 267.000 46.167 267.000 41.833 L 267.000 37.500 253.333 37.500 L 239.667 37.500 239.667 41.833 M182.000 54.467 C 182.000 54.540,182.060 54.671,182.133 54.758 C 182.206 54.845,182.365 55.217,182.486 55.583 C 182.724 56.303,184.061 59.258,184.334 59.667 C 184.426 59.804,184.580 60.101,184.676 60.327 C 184.773 60.552,185.115 61.171,185.438 61.702 L 186.024 62.667 224.595 62.667 C 256.326 62.667,263.167 62.628,263.167 62.448 C 263.167 62.097,259.037 58.167,258.668 58.167 C 258.576 58.167,258.500 58.105,258.500 58.029 C 258.500 57.719,255.610 55.902,253.541 54.912 L 252.332 54.333 217.166 54.333 C 197.825 54.333,182.000 54.393,182.000 54.467 M194.250 71.417 C 194.617 71.731,195.104 72.084,195.333 72.202 C 195.563 72.320,195.787 72.454,195.833 72.500 C 196.692 73.361,201.710 75.500,204.000 75.981 C 204.504 76.086,205.254 76.258,205.667 76.362 C 206.184 76.492,210.678 76.573,220.125 76.621 L 233.833 76.691 233.833 78.012 L 233.833 79.333 252.750 79.333 C 264.603 79.333,271.667 79.274,271.667 79.175 C 271.667 78.729,270.194 74.019,269.858 73.391 C 269.612 72.930,269.059 71.635,268.927 71.208 L 268.811 70.833 231.197 70.840 L 193.583 70.846 194.250 71.417 M179.667 91.583 L 179.667 95.833 196.000 95.833 L 212.333 95.833 212.333 91.583 L 212.333 87.333 196.000 87.333 L 179.667 87.333 179.667 91.583 M233.667 91.583 L 233.667 95.833 253.066 95.833 C 271.385 95.833,272.471 95.817,272.582 95.542 C 272.749 95.126,272.949 90.342,272.867 88.708 L 272.798 87.333 253.232 87.333 L 233.667 87.333 233.667 91.583 M179.667 108.083 L 179.667 112.333 223.405 112.333 L 267.144 112.333 267.741 111.139 C 268.070 110.482,268.401 109.863,268.478 109.764 C 268.593 109.614,269.877 106.602,270.331 105.417 C 270.401 105.233,270.544 104.871,270.648 104.613 C 270.752 104.354,270.795 104.072,270.742 103.988 C 270.684 103.894,252.847 103.833,225.157 103.833 L 179.667 103.833 179.667 108.083 M179.667 124.083 L 179.667 127.667 211.542 127.663 C 248.342 127.660,247.709 127.686,251.583 126.011 C 251.767 125.932,252.179 125.772,252.500 125.656 C 252.821 125.540,253.202 125.345,253.346 125.223 C 253.491 125.100,253.693 125.000,253.795 125.000 C 254.079 125.000,257.143 123.179,258.083 122.451 C 259.537 121.327,260.167 120.778,260.167 120.637 C 260.167 120.562,242.054 120.500,219.917 120.500 L 179.667 120.500 179.667 124.083 " stroke="none" fill="#1c1c1c" fill-rule="evenodd"></path><path id="path2" d="M49.167 4.679 C 48.204 4.748,46.967 4.883,46.417 4.980 C 44.477 5.320,41.331 6.131,41.092 6.353 C 41.005 6.434,40.817 6.500,40.675 6.500 C 39.660 6.500,32.692 10.024,31.530 11.125 C 31.409 11.239,31.254 11.333,31.186 11.333 C 31.118 11.333,30.916 11.471,30.735 11.638 C 30.555 11.806,30.204 12.077,29.954 12.241 C 29.704 12.404,29.500 12.605,29.500 12.686 C 29.500 12.772,43.807 12.816,63.542 12.792 L 97.583 12.750 97.628 8.625 L 97.672 4.500 74.295 4.527 C 61.437 4.541,50.129 4.610,49.167 4.679 M20.333 21.791 C 19.186 23.321,17.337 26.087,17.335 26.278 C 17.334 26.385,17.265 26.497,17.181 26.528 C 17.041 26.579,15.500 29.078,15.500 29.255 C 15.500 29.298,33.987 29.333,56.583 29.333 L 97.667 29.333 97.667 25.167 L 97.667 21.000 59.292 21.007 L 20.917 21.013 20.333 21.791 M11.410 38.125 C 11.266 38.469,10.878 39.575,10.547 40.583 C 10.216 41.592,9.891 42.567,9.825 42.750 C 9.759 42.933,9.616 43.421,9.509 43.833 C 9.401 44.246,9.211 44.896,9.086 45.277 C 8.962 45.659,8.904 46.015,8.958 46.069 C 9.012 46.123,18.531 46.167,30.111 46.167 L 51.167 46.167 51.167 41.833 L 51.167 37.500 31.419 37.500 L 11.671 37.500 11.410 38.125 M67.908 37.711 C 67.864 37.828,67.847 39.759,67.872 42.003 L 67.917 46.083 82.792 46.126 L 97.667 46.168 97.667 41.834 L 97.667 37.500 82.828 37.500 C 70.993 37.500,67.973 37.543,67.908 37.711 M109.478 38.292 C 107.643 40.204,105.667 44.119,105.667 45.841 C 105.667 46.163,106.051 46.167,138.417 46.167 L 171.167 46.167 171.167 45.703 C 171.167 44.904,169.639 41.000,169.327 41.000 C 169.259 41.000,169.159 40.831,169.106 40.625 C 169.052 40.419,168.813 40.025,168.573 39.750 C 168.334 39.475,167.938 38.995,167.694 38.683 C 166.660 37.364,170.023 37.500,138.421 37.500 L 110.237 37.500 109.478 38.292 M7.258 54.623 C 7.197 54.782,7.078 55.663,6.994 56.581 C 6.910 57.499,6.766 58.887,6.674 59.667 C 6.583 60.446,6.516 61.440,6.525 61.875 L 6.542 62.667 28.854 62.667 L 51.167 62.667 51.167 58.500 L 51.167 54.333 29.268 54.333 C 8.628 54.333,7.363 54.350,7.258 54.623 M105.205 58.458 L 105.250 62.583 118.875 62.626 L 132.500 62.669 132.500 58.501 L 132.500 54.333 118.830 54.333 L 105.161 54.333 105.205 58.458 M144.333 58.500 L 144.333 62.667 157.917 62.667 L 171.500 62.667 171.500 58.500 L 171.500 54.333 157.917 54.333 L 144.333 54.333 144.333 58.500 M6.562 71.458 C 6.612 71.802,6.735 72.908,6.835 73.917 C 6.934 74.925,7.087 76.209,7.175 76.769 C 7.262 77.330,7.333 78.046,7.333 78.361 C 7.333 78.676,7.423 79.023,7.533 79.133 C 7.880 79.480,50.932 79.417,51.066 79.070 C 51.121 78.925,51.167 77.012,51.167 74.820 L 51.167 70.833 28.819 70.833 L 6.471 70.833 6.562 71.458 M105.167 74.982 C 105.167 78.612,105.200 79.144,105.430 79.232 C 105.575 79.288,111.725 79.333,119.097 79.333 L 132.500 79.333 132.500 75.083 L 132.500 70.833 118.833 70.833 L 105.167 70.833 105.167 74.982 M144.372 75.042 L 144.417 79.250 157.958 79.293 L 171.500 79.335 171.500 75.084 L 171.500 70.833 157.914 70.833 L 144.328 70.833 144.372 75.042 M9.333 87.558 C 9.333 87.682,9.403 88.001,9.489 88.267 C 9.575 88.533,9.849 89.425,10.099 90.250 C 10.349 91.075,10.612 91.862,10.685 92.000 C 10.758 92.138,11.019 92.850,11.265 93.583 C 11.511 94.317,11.777 94.988,11.856 95.075 C 11.935 95.162,12.000 95.368,12.000 95.533 C 12.000 95.821,12.836 95.833,31.583 95.833 L 51.167 95.833 51.167 91.583 L 51.167 87.333 30.250 87.333 C 12.796 87.333,9.333 87.371,9.333 87.558 M67.908 87.545 C 67.864 87.661,67.847 89.555,67.872 91.753 L 67.917 95.750 82.792 95.793 L 97.667 95.835 97.667 91.584 L 97.667 87.333 82.828 87.333 C 70.988 87.333,67.973 87.376,67.908 87.545 M105.242 87.545 C 105.197 87.661,105.181 89.555,105.205 91.753 L 105.250 95.750 118.875 95.793 L 132.500 95.835 132.500 91.584 L 132.500 87.333 118.911 87.333 C 108.081 87.333,105.306 87.376,105.242 87.545 M144.333 91.583 L 144.333 95.833 157.917 95.833 L 171.500 95.833 171.500 91.583 L 171.500 87.333 157.917 87.333 L 144.333 87.333 144.333 91.583 M16.259 103.986 C 16.206 104.071,16.282 104.258,16.427 104.403 C 16.572 104.548,16.646 104.667,16.593 104.667 C 16.501 104.667,17.793 106.819,17.994 107.000 C 18.045 107.046,18.436 107.608,18.863 108.250 C 19.290 108.892,20.153 110.054,20.780 110.833 L 21.920 112.250 59.796 112.292 L 97.672 112.334 97.628 108.125 L 97.583 103.917 56.968 103.875 C 32.332 103.849,16.316 103.893,16.259 103.986 M105.242 104.045 C 105.197 104.161,105.181 106.055,105.205 108.253 L 105.250 112.250 138.375 112.292 L 171.500 112.334 171.500 108.084 L 171.500 103.833 138.411 103.833 C 111.820 103.833,105.307 103.875,105.242 104.045 M31.255 120.658 C 31.201 120.745,31.328 120.907,31.537 121.017 C 31.746 121.127,31.954 121.262,32.000 121.318 C 32.098 121.438,33.466 122.333,33.551 122.333 C 33.583 122.333,34.202 122.671,34.926 123.083 C 35.650 123.496,36.375 123.833,36.538 123.833 C 36.700 123.833,36.833 123.901,36.833 123.984 C 36.833 124.105,37.262 124.323,38.000 124.578 C 38.046 124.594,38.271 124.689,38.500 124.790 C 39.185 125.091,39.576 125.221,39.708 125.193 C 39.777 125.179,39.833 125.225,39.833 125.297 C 39.833 125.369,40.190 125.527,40.625 125.648 C 41.478 125.886,42.198 126.099,43.250 126.424 C 44.673 126.863,47.063 127.266,49.167 127.421 C 49.854 127.471,61.048 127.528,74.042 127.548 L 97.667 127.583 97.667 124.042 L 97.667 120.500 64.510 120.500 C 43.753 120.500,31.316 120.559,31.255 120.658 M108.333 120.764 C 108.333 121.071,111.112 123.955,111.865 124.429 C 112.145 124.606,112.571 124.881,112.812 125.041 C 113.452 125.467,115.596 126.482,116.394 126.738 C 118.581 127.439,117.867 127.417,138.500 127.417 L 158.250 127.417 159.568 127.034 C 161.326 126.523,163.833 125.408,163.833 125.137 C 163.833 125.062,163.931 125.000,164.051 125.000 C 164.703 125.000,168.493 121.272,168.499 120.625 C 168.500 120.556,154.963 120.500,138.417 120.500 C 111.066 120.500,108.333 120.524,108.333 120.764 " stroke="none" fill="#837c7c" fill-rule="evenodd"></path><path id="path3" d="M276.000 8.750 L 276.000 12.833 333.083 12.833 L 390.167 12.833 390.167 8.750 L 390.167 4.667 333.083 4.667 L 276.000 4.667 276.000 8.750 M276.000 25.167 L 276.000 29.333 333.083 29.333 L 390.167 29.333 390.167 25.167 L 390.167 21.000 333.083 21.000 L 276.000 21.000 276.000 25.167 M276.000 41.833 L 276.000 46.167 291.000 46.167 L 306.000 46.167 306.000 41.833 L 306.000 37.500 291.000 37.500 L 276.000 37.500 276.000 41.833 M314.667 41.833 L 314.667 46.167 333.000 46.167 L 351.333 46.167 351.333 41.833 L 351.333 37.500 333.000 37.500 L 314.667 37.500 314.667 41.833 M359.833 41.833 L 359.833 46.167 375.000 46.167 L 390.167 46.167 390.167 41.833 L 390.167 37.500 375.000 37.500 L 359.833 37.500 359.833 41.833 M314.667 58.500 L 314.667 62.667 333.000 62.667 L 351.333 62.667 351.333 58.500 L 351.333 54.333 333.000 54.333 L 314.667 54.333 314.667 58.500 M314.667 75.083 L 314.667 79.333 333.000 79.333 L 351.333 79.333 351.333 75.083 L 351.333 70.833 333.000 70.833 L 314.667 70.833 314.667 75.083 M314.667 91.583 L 314.667 95.833 333.000 95.833 L 351.333 95.833 351.333 91.583 L 351.333 87.333 333.000 87.333 L 314.667 87.333 314.667 91.583 M299.667 108.083 L 299.667 112.333 333.086 112.333 L 366.506 112.333 366.461 108.125 L 366.417 103.917 333.042 103.875 L 299.667 103.833 299.667 108.083 M299.667 124.083 L 299.667 127.667 333.083 127.667 L 366.500 127.667 366.500 124.083 L 366.500 120.500 333.083 120.500 L 299.667 120.500 299.667 124.083 M3.000 156.333 L 3.000 169.833 199.833 169.833 L 396.667 169.833 396.667 156.333 L 396.667 142.833 199.833 142.833 L 3.000 142.833 3.000 156.333 M64.644 150.875 C 66.261 158.234,66.408 158.837,66.515 158.546 C 66.575 158.383,66.943 157.050,67.333 155.583 C 67.723 154.117,68.354 151.754,68.734 150.333 L 69.426 147.750 71.455 147.703 L 73.484 147.657 73.648 148.287 C 73.738 148.633,74.343 151.054,74.993 153.667 C 75.643 156.279,76.229 158.549,76.296 158.711 C 76.371 158.893,76.889 156.853,77.660 153.336 L 78.903 147.667 80.618 147.667 C 81.562 147.667,82.333 147.697,82.333 147.734 C 82.333 147.798,81.813 149.957,79.819 158.167 C 79.362 160.046,78.873 162.071,78.731 162.667 C 78.589 163.262,78.437 163.881,78.392 164.042 C 78.321 164.297,78.083 164.333,76.501 164.333 L 74.690 164.333 74.448 163.458 C 74.123 162.285,73.147 158.649,72.335 155.583 C 71.970 154.208,71.606 152.858,71.524 152.583 L 71.377 152.083 71.250 152.583 C 71.181 152.858,70.802 154.283,70.409 155.750 C 70.015 157.217,69.458 159.317,69.171 160.417 C 68.884 161.517,68.530 162.848,68.386 163.375 L 68.123 164.333 66.263 164.333 L 64.402 164.333 63.681 161.292 C 63.284 159.619,62.598 156.750,62.157 154.917 C 60.925 149.804,60.500 147.985,60.500 147.819 C 60.500 147.735,61.274 147.667,62.220 147.667 L 63.940 147.667 64.644 150.875 M130.500 154.583 L 130.500 161.500 134.667 161.500 L 138.833 161.500 138.833 162.917 L 138.833 164.333 132.917 164.333 L 127.000 164.333 127.000 156.000 L 127.000 147.667 128.750 147.667 L 130.500 147.667 130.500 154.583 M181.000 150.520 L 181.000 153.374 181.375 153.104 C 182.960 151.963,185.166 151.688,186.602 152.452 C 190.556 154.556,190.436 162.260,186.420 164.147 C 184.759 164.928,182.182 164.442,181.087 163.141 L 180.667 162.641 180.667 163.487 L 180.667 164.333 179.167 164.333 L 177.667 164.333 177.667 156.000 L 177.667 147.667 179.333 147.667 L 181.000 147.667 181.000 150.520 M210.706 151.949 L 210.750 156.232 212.500 154.213 L 214.250 152.195 216.208 152.181 C 217.285 152.173,218.167 152.215,218.167 152.274 C 218.167 152.333,217.262 153.343,216.156 154.518 L 214.145 156.655 216.323 160.411 C 217.520 162.477,218.500 164.204,218.500 164.250 C 218.500 164.296,217.721 164.333,216.769 164.333 L 215.037 164.333 213.560 161.675 L 212.083 159.018 211.375 159.710 L 210.667 160.403 210.667 162.368 L 210.667 164.333 209.000 164.333 L 207.333 164.333 207.333 156.000 L 207.333 147.667 208.997 147.667 L 210.661 147.667 210.706 151.949 M238.333 156.000 L 238.333 164.333 236.667 164.333 L 235.000 164.333 235.000 156.000 L 235.000 147.667 236.667 147.667 L 238.333 147.667 238.333 156.000 M268.000 156.000 L 268.000 164.333 266.500 164.333 L 265.000 164.333 265.000 163.551 L 265.000 162.768 264.458 163.291 C 261.463 166.185,256.963 164.098,256.294 159.505 C 255.454 153.744,260.176 149.886,264.208 153.039 L 264.833 153.528 264.833 150.597 L 264.833 147.667 266.417 147.667 L 268.000 147.667 268.000 156.000 M331.667 149.083 L 331.667 150.500 330.000 150.500 L 328.333 150.500 328.333 149.083 L 328.333 147.667 330.000 147.667 L 331.667 147.667 331.667 149.083 M116.088 152.167 L 117.167 152.167 117.167 153.417 L 117.167 154.667 116.083 154.667 L 115.000 154.667 115.000 157.988 C 115.000 161.941,115.156 162.273,116.730 161.674 C 117.185 161.501,117.150 161.403,117.384 163.478 C 117.475 164.280,116.778 164.551,114.814 164.474 C 112.051 164.365,111.805 163.898,111.699 158.552 L 111.622 154.667 110.978 154.667 L 110.333 154.667 110.333 153.417 L 110.333 152.167 111.000 152.167 L 111.667 152.167 111.667 151.104 C 111.667 149.877,111.610 149.946,113.540 148.839 L 114.917 148.050 114.963 150.108 L 115.010 152.167 116.088 152.167 M91.758 152.545 C 93.580 153.469,94.606 155.244,94.785 157.784 L 94.883 159.167 90.951 159.167 C 86.644 159.167,86.827 159.122,87.037 160.121 C 87.515 162.395,90.180 162.786,91.417 160.764 C 91.565 160.521,91.740 160.512,93.000 160.680 C 94.723 160.909,94.781 160.956,94.355 161.791 C 92.461 165.504,86.335 165.563,84.375 161.887 C 81.375 156.259,86.440 149.850,91.758 152.545 M105.745 152.574 C 106.693 153.037,107.535 154.001,107.754 154.872 C 107.858 155.289,107.841 155.298,106.422 155.509 L 104.984 155.723 104.483 155.115 C 103.433 153.842,100.500 153.950,100.500 155.262 C 100.500 155.781,100.854 155.943,103.540 156.649 C 107.708 157.745,108.865 158.983,108.147 161.583 C 107.095 165.396,99.094 165.625,97.340 161.893 C 97.140 161.469,97.039 161.065,97.114 160.995 C 97.247 160.869,100.183 160.434,100.227 160.533 C 101.033 162.328,103.494 162.983,104.742 161.734 C 105.639 160.838,105.103 160.378,102.333 159.664 C 98.134 158.581,96.919 157.337,97.578 154.795 C 98.229 152.285,102.681 151.075,105.745 152.574 M150.000 152.555 C 155.856 155.353,154.050 164.231,147.575 164.473 C 143.525 164.625,141.000 162.234,141.000 158.245 C 141.000 153.570,145.788 150.542,150.000 152.555 M164.417 152.185 C 164.830 152.299,165.346 152.641,165.776 153.087 L 166.468 153.806 166.859 153.387 C 168.786 151.323,172.442 151.606,173.589 153.907 C 173.997 154.727,174.000 154.763,174.000 159.533 L 174.000 164.333 172.417 164.333 L 170.833 164.333 170.832 160.292 C 170.831 155.095,170.660 154.499,169.171 154.501 C 167.257 154.503,166.929 155.327,166.864 160.292 L 166.812 164.333 165.156 164.333 L 163.500 164.333 163.500 159.929 L 163.500 155.526 163.069 155.013 C 162.254 154.045,160.456 154.485,159.868 155.795 C 159.639 156.305,159.579 157.125,159.532 160.375 L 159.474 164.333 157.903 164.333 L 156.333 164.333 156.333 158.244 L 156.333 152.154 157.792 152.202 L 159.250 152.250 159.333 152.986 C 159.408 153.648,159.440 153.693,159.652 153.437 C 160.643 152.233,162.662 151.703,164.417 152.185 M200.833 152.555 C 203.693 153.921,205.003 157.147,204.004 160.357 C 202.195 166.167,193.371 165.879,192.006 159.965 C 190.765 154.585,195.958 150.225,200.833 152.555 M251.115 152.472 C 252.824 153.348,253.000 154.021,253.000 159.692 L 253.000 164.333 251.429 164.333 L 249.859 164.333 249.804 160.125 C 249.737 154.923,249.578 154.500,247.683 154.500 C 245.711 154.500,245.334 155.442,245.334 160.375 L 245.333 164.333 243.667 164.333 L 242.000 164.333 242.000 158.250 L 242.000 152.167 243.500 152.167 L 245.000 152.167 245.000 153.019 L 245.000 153.872 245.652 153.283 C 247.137 151.942,249.419 151.603,251.115 152.472 M280.047 152.587 C 283.161 154.112,284.414 158.246,282.711 161.375 C 280.399 165.623,273.722 165.617,271.628 161.364 C 268.897 155.817,274.568 149.904,280.047 152.587 M295.785 152.604 C 297.348 153.569,297.408 153.813,297.472 159.458 L 297.526 164.333 295.847 164.333 L 294.167 164.333 294.167 160.158 C 294.167 155.071,293.977 154.500,292.288 154.500 C 290.132 154.500,289.677 155.593,289.671 160.792 L 289.667 164.333 288.083 164.333 L 286.500 164.333 286.500 158.250 L 286.500 152.167 288.000 152.167 L 289.500 152.167 289.500 153.020 L 289.500 153.873 290.042 153.339 C 291.515 151.886,294.090 151.556,295.785 152.604 M307.776 152.248 C 310.038 152.920,311.349 154.871,311.612 157.958 L 311.716 159.167 307.691 159.167 C 303.197 159.167,303.482 159.078,303.839 160.364 C 304.351 162.207,307.306 162.676,307.991 161.022 C 308.110 160.735,308.268 160.500,308.341 160.500 C 308.626 160.500,311.094 160.851,311.296 160.920 C 312.065 161.184,309.735 163.784,308.305 164.259 C 304.212 165.619,300.594 163.179,300.370 158.910 C 300.112 153.973,303.456 150.965,307.776 152.248 M322.083 152.403 C 323.133 152.845,324.500 154.394,324.500 155.143 C 324.500 155.229,323.859 155.394,323.075 155.511 L 321.650 155.723 321.150 155.115 C 320.310 154.096,318.360 153.897,317.391 154.730 C 316.564 155.441,317.202 155.932,319.785 156.574 C 323.434 157.480,324.407 158.083,324.846 159.715 C 326.092 164.339,317.060 166.610,314.259 162.376 C 313.465 161.177,313.565 160.954,315.000 160.723 C 316.785 160.435,316.787 160.435,317.090 161.074 C 317.857 162.691,321.441 162.735,321.634 161.129 C 321.711 160.491,321.332 160.246,319.635 159.835 C 315.225 158.768,314.121 157.957,314.095 155.765 C 314.075 154.007,315.097 152.754,316.992 152.216 C 318.046 151.916,321.201 152.032,322.083 152.403 M343.172 152.445 C 344.926 153.229,345.165 153.974,345.166 158.682 C 345.167 162.142,345.240 162.819,345.750 164.048 C 345.865 164.324,345.754 164.342,344.242 164.298 L 342.610 164.250 342.449 163.750 C 342.231 163.073,342.259 163.080,341.636 163.550 C 338.666 165.792,334.583 164.315,334.583 161.000 C 334.583 158.706,335.558 157.902,339.333 157.083 C 342.147 156.472,342.307 156.356,341.815 155.276 C 341.275 154.092,338.519 154.248,338.003 155.492 C 337.765 156.067,337.833 156.057,336.205 155.766 C 334.714 155.499,334.735 155.520,335.126 154.639 C 335.744 153.248,336.700 152.464,338.167 152.145 C 339.313 151.896,342.352 152.078,343.172 152.445 M331.627 158.292 L 331.671 164.333 330.002 164.333 L 328.333 164.333 328.333 158.244 L 328.333 152.155 329.958 152.202 L 331.583 152.250 331.627 158.292 M88.139 154.785 C 87.596 155.122,87.000 156.140,87.000 156.731 L 87.000 157.167 89.347 157.167 L 91.693 157.167 91.577 156.625 C 91.193 154.846,89.501 153.940,88.139 154.785 M182.417 154.756 C 180.607 155.653,180.356 159.932,182.026 161.435 C 183.489 162.753,185.494 161.942,186.001 159.828 C 186.824 156.397,184.822 153.563,182.417 154.756 M260.908 154.831 C 259.219 155.914,259.029 160.122,260.607 161.525 C 262.123 162.873,264.191 161.848,264.686 159.504 C 265.387 156.186,263.137 153.403,260.908 154.831 M304.883 154.827 C 304.309 155.177,303.943 155.761,303.757 156.625 L 303.640 157.167 305.987 157.167 L 308.333 157.167 308.333 156.743 C 308.333 155.054,306.333 153.943,304.883 154.827 M145.917 154.977 C 143.033 156.758,144.290 162.350,147.480 161.930 C 151.260 161.432,151.015 154.664,147.217 154.667 C 146.730 154.668,146.221 154.789,145.917 154.977 M196.735 154.982 C 195.568 155.693,195.080 156.878,195.207 158.685 C 195.509 162.949,200.570 163.088,200.955 158.842 C 201.233 155.776,198.913 153.654,196.735 154.982 M276.081 154.824 C 273.700 155.790,273.724 160.640,276.114 161.698 C 278.230 162.634,280.023 161.092,280.035 158.325 C 280.047 155.576,278.218 153.957,276.081 154.824 M339.963 159.069 C 337.821 159.615,337.103 160.756,338.234 161.818 C 339.657 163.155,341.999 161.740,342.000 159.542 C 342.000 158.513,342.075 158.530,339.963 159.069 M224.131 162.812 C 224.202 165.380,223.725 166.683,222.362 167.643 C 221.513 168.240,221.258 168.229,220.948 167.579 C 220.573 166.792,220.578 166.770,221.242 166.454 C 222.502 165.853,222.761 164.439,221.625 164.366 L 220.833 164.315 220.833 162.769 C 220.833 160.884,220.739 160.978,222.575 161.036 L 224.083 161.083 224.131 162.812 " stroke="none" fill="#c41919" fill-rule="evenodd"></path><path id="path4" d="M62.458 127.625 C 68.898 127.649,79.435 127.649,85.875 127.625 C 92.315 127.601,87.046 127.581,74.167 127.581 C 61.288 127.581,56.019 127.601,62.458 127.625 M180.865 150.625 C 180.848 152.206,180.890 153.500,180.958 153.500 C 181.027 153.501,181.064 152.619,181.040 151.542 C 180.962 148.033,180.897 147.693,180.865 150.625 M111.721 151.083 C 111.722 151.725,111.752 151.967,111.788 151.621 C 111.824 151.275,111.824 150.750,111.787 150.455 C 111.750 150.159,111.721 150.442,111.721 151.083 M111.736 157.833 C 111.736 159.621,111.761 160.352,111.791 159.458 C 111.821 158.565,111.821 157.102,111.791 156.208 C 111.761 155.315,111.736 156.046,111.736 157.833 M245.236 161.167 C 245.236 162.954,245.261 163.685,245.291 162.792 C 245.321 161.898,245.321 160.435,245.291 159.542 C 245.261 158.648,245.236 159.379,245.236 161.167 " stroke="none" fill="#848484" fill-rule="evenodd"></path></g></svg>